<svg width="100" viewBox="0 0 412 86" fill="none" xmlns="http://www.w3.org/2000/svg"><g clip-path="url(#clip0_2385_51745)"><path fill-rule="evenodd" clip-rule="evenodd" d="M0.714947 31.0183L15.622 51.6026C15.8548 51.9247 16.1566 52.1861 16.5037 52.3661C16.8507 52.5461 17.2333 52.6399 17.6213 52.6399C18.0093 52.6399 18.3919 52.5461 18.739 52.3661C19.086 52.1861 19.3878 51.9247 19.6206 51.6026L32.7212 33.5122C33.9008 31.8822 32.8932 29.5454 30.9361 29.3706L2.92848 26.8774C0.774212 26.6856 -0.583182 29.2268 0.714947 31.0183Z" fill="#FAFAFA"></path><path fill-rule="evenodd" clip-rule="evenodd" d="M94.0367 30.9419L66.9302 68.3719C65.6928 70.0812 66.8681 72.5209 68.9296 72.5209H92.5765C93.0753 72.5209 93.5673 72.4004 94.0134 72.1689C94.4596 71.9375 94.8477 71.6014 95.147 71.1873L124.177 31.1049C125.485 29.2993 124.097 26.7425 121.931 26.967L96.2895 29.6268C95.8467 29.6722 95.4178 29.8125 95.03 30.0389C94.6422 30.2653 94.304 30.5728 94.0367 30.9419Z" fill="#FAFAFA"></path><path fill-rule="evenodd" clip-rule="evenodd" d="M86.5585 31.2497L57.5249 71.344C57.2238 71.7606 56.8328 72.0982 56.3833 72.3298C55.9338 72.5614 55.4383 72.6805 54.9365 72.6776L32.3591 72.5294C31.8648 72.5264 31.3779 72.4051 30.9361 72.175C30.4944 71.9448 30.1097 71.612 29.8122 71.2025L22.6853 61.4019C22.2652 60.8244 22.0375 60.1207 22.0368 59.3971C22.036 58.6735 22.2621 57.9692 22.681 57.3907L62.8373 1.9406C63.1356 1.52871 63.5218 1.19415 63.9656 0.963184C64.4095 0.732214 64.8989 0.611116 65.3954 0.609394C65.8919 0.607671 66.3821 0.725369 66.8274 0.953254C67.2727 1.18114 67.6611 1.51301 67.962 1.92282L86.5442 27.2237C86.9692 27.8014 87.2006 28.5074 87.2032 29.2342C87.2057 29.961 86.9794 30.6687 86.5585 31.2497Z" fill="#FAFAFA"></path></g><path fill-rule="evenodd" clip-rule="evenodd" d="M203.546 72.7043L202.175 66.434C202.168 66.397 202.153 66.3619 202.132 66.3306C202.111 66.2994 202.084 66.2728 202.052 66.2523C201.988 66.2123 201.911 66.198 201.837 66.2122L200.778 66.4151C200.266 66.5011 199.748 66.5414 199.23 66.5355C198.477 66.5427 197.729 66.4197 197.018 66.172C196.36 65.9025 195.812 65.4174 195.466 64.7962C195.067 64.1189 194.847 63.0711 194.847 61.615V38.4241H203.042C203.119 38.4239 203.193 38.3933 203.247 38.3391C203.301 38.2854 203.332 38.2124 203.332 38.1361V30.8912C203.332 30.8531 203.325 30.8153 203.31 30.7801C203.296 30.7449 203.274 30.7129 203.247 30.6859C203.193 30.6317 203.119 30.6012 203.042 30.6009H194.845V20.6067C194.845 20.5685 194.837 20.5308 194.823 20.4956C194.808 20.4603 194.787 20.4283 194.76 20.4014C194.733 20.3744 194.701 20.353 194.666 20.3384C194.631 20.3239 194.593 20.3164 194.555 20.3164H186.965C186.927 20.3164 186.889 20.3239 186.854 20.3384C186.819 20.353 186.787 20.3744 186.76 20.4014C186.733 20.4283 186.711 20.4603 186.697 20.4956C186.682 20.5308 186.675 20.5685 186.675 20.6067V27.9083C186.675 28.6255 186.39 29.3134 185.883 29.8206C185.376 30.3278 184.688 30.6127 183.97 30.6127H180.766C180.708 30.6202 180.654 30.6458 180.612 30.6859C180.585 30.7129 180.564 30.7449 180.549 30.7801C180.535 30.8153 180.527 30.8531 180.527 30.8912V38.1361C180.528 38.2124 180.558 38.2854 180.612 38.3391C180.666 38.3932 180.739 38.4237 180.815 38.4241H186.673V63.2033C186.673 65.5986 187.215 67.6871 188.325 69.3131C189.388 70.8895 190.886 72.1239 192.636 72.8671C194.433 73.6558 196.378 74.0494 198.34 74.0211C199.384 74.0028 200.423 73.8762 201.441 73.6435C202.095 73.4916 202.736 73.2896 203.36 73.0394C203.426 73.0177 203.482 72.9712 203.515 72.9096C203.551 72.8475 203.562 72.7742 203.546 72.7043ZM210.692 73.1843C210.692 73.2612 210.722 73.335 210.777 73.3896C210.83 73.4437 210.903 73.4742 210.98 73.4745H219.133C219.209 73.4742 219.282 73.4437 219.336 73.3896C219.39 73.335 219.421 73.2612 219.421 73.1843V47.4163C219.391 45.7413 219.829 44.0912 220.686 42.6516C221.509 41.2587 222.696 40.1165 224.12 39.3477C225.583 38.5477 226.782 38.1442 228.665 38.1418C229.725 38.1418 230.784 38.2056 231.837 38.3329C232.41 38.3942 232.979 38.4912 233.54 38.6232C233.584 38.6327 233.629 38.6327 233.672 38.6232C233.716 38.6137 233.758 38.5943 233.793 38.5666C233.828 38.5401 233.857 38.5053 233.876 38.4651C233.896 38.425 233.907 38.3804 233.906 38.3353V30.4343C233.907 30.3633 233.882 30.2946 233.835 30.2408C233.79 30.1863 233.726 30.1509 233.656 30.1417C233.245 30.085 232.681 30.0402 231.971 29.9954C231.261 29.9505 230.671 29.9411 230.156 29.9411C227.645 29.9411 225.156 30.6231 223.159 31.9871C222.134 32.6764 221.239 33.5417 220.516 34.5429L219.119 30.7671C219.099 30.7119 219.063 30.664 219.015 30.6302C218.967 30.5959 218.909 30.5777 218.85 30.5783H210.972C210.896 30.5786 210.823 30.6091 210.77 30.6632C210.715 30.7185 210.684 30.7932 210.685 30.8709L210.692 73.1843ZM335.185 73.1226C335.185 73.1554 335.191 73.188 335.204 73.2183C335.216 73.2487 335.235 73.2763 335.258 73.2996C335.306 73.3462 335.37 73.3724 335.437 73.3727H343.584C343.617 73.3729 343.65 73.3666 343.681 73.354C343.711 73.3415 343.739 73.323 343.763 73.2996C343.786 73.2763 343.805 73.2487 343.817 73.2183C343.83 73.188 343.836 73.1554 343.836 73.1226V47.9776C343.793 46.265 344.184 44.5693 344.971 43.0477C345.68 41.7019 346.727 40.5634 348.009 39.7439C349.244 38.951 350.682 38.5329 352.15 38.5403C354.366 38.5403 356.141 39.2199 357.505 40.5627C358.869 41.9055 359.553 43.6826 359.553 45.9221V73.1061C359.555 73.1725 359.582 73.2358 359.629 73.2831C359.652 73.3064 359.68 73.325 359.711 73.3375C359.742 73.3501 359.775 73.3564 359.808 73.3562H367.936C367.969 73.3563 368.001 73.3498 368.031 73.3372C368.062 73.3247 368.089 73.3063 368.113 73.2831C368.137 73.2605 368.156 73.2331 368.169 73.2026C368.182 73.1721 368.189 73.1392 368.188 73.1061V47.0785C368.188 44.5581 368.91 42.5168 370.331 40.9427C371.752 39.3686 373.739 38.5639 376.335 38.5639C378.291 38.5198 380.197 39.1845 381.701 40.4353C383.164 41.6554 383.926 43.6448 383.926 46.4696V73.1367C383.926 73.1696 383.933 73.2022 383.945 73.2325C383.958 73.2629 383.976 73.2905 384 73.3137C384.048 73.3603 384.112 73.3866 384.179 73.3869H392.326C392.393 73.3871 392.457 73.3608 392.505 73.3137C392.528 73.2905 392.546 73.2629 392.559 73.2325C392.572 73.2022 392.578 73.1696 392.578 73.1367V44.7469C392.578 39.8548 391.363 36.1568 388.882 33.6859C386.402 31.2151 383.266 30.0021 379.412 30.0021C376.358 30.0021 373.716 30.6943 371.485 32.0788C369.379 33.3404 367.705 35.2117 366.685 37.4453H366.586C365.736 35.2611 364.258 33.3779 362.338 32.034C360.395 30.6778 358.003 30.0013 355.161 30.0045C352.358 30.0045 349.941 30.6802 347.912 32.0316C346.873 32.7116 345.959 33.564 345.207 34.552L343.487 30.7077C343.467 30.6635 343.434 30.6264 343.393 30.6015C343.351 30.577 343.304 30.564 343.256 30.5638H335.442C335.375 30.5636 335.31 30.5899 335.263 30.6369C335.239 30.6605 335.221 30.6885 335.208 30.7193C335.196 30.7501 335.189 30.783 335.189 30.8163L335.185 73.1226ZM165.6 48.7889C169.357 49.7163 172.07 51.1063 173.895 53.0202C175.75 54.9695 176.694 57.5159 176.694 60.605C176.728 63.0975 175.986 65.5389 174.57 67.5904C173.154 69.5916 171.214 71.1703 168.762 72.2984C166.31 73.4264 163.443 73.9976 160.245 73.9976C155.78 73.9976 152.08 72.9875 149.245 70.9297C146.411 68.8718 144.967 66.8682 144.091 63.7862V63.7508C144.072 63.6677 144.072 63.5814 144.091 63.4983C144.109 63.4135 144.143 63.3332 144.193 63.2623C144.287 63.1404 144.422 63.0566 144.573 63.0263L151.617 60.4162C151.777 60.3889 151.941 60.4244 152.075 60.5153C152.21 60.6038 152.305 60.7407 152.342 60.8976C152.717 62.5661 153.521 63.7437 155.032 64.8387C156.327 65.7827 158.062 66.2546 160.186 66.2546C162.56 66.2546 164.375 65.7591 165.734 64.7372C167.056 63.7531 167.697 62.5921 167.697 61.1973C167.711 60.6737 167.613 60.1533 167.41 59.6704C167.209 59.1917 166.91 58.7607 166.532 58.4055C165.725 57.6079 164.443 56.9919 162.713 56.5742L156.157 55.0403C152.429 54.1341 149.623 52.6851 147.806 50.6508C145.989 48.6166 145.068 46.0207 145.068 42.9292C145.066 40.3616 145.75 38.0843 147.102 36.1562C148.516 34.1871 150.437 32.6376 152.66 31.6724C154.992 30.5986 157.687 30.0534 160.67 30.0534C164.984 30.0534 168.446 31.08 170.961 33.1001L170.982 33.119C173.685 35.6704 174.542 38.1441 175.299 40.3281L175.301 40.3333V40.3639C175.319 40.4488 175.319 40.5363 175.301 40.6212C175.286 40.7051 175.255 40.7853 175.209 40.8572C175.163 40.9308 175.102 40.9942 175.03 41.0436C174.958 41.0898 174.878 41.1218 174.794 41.138L168.455 42.6743C168.293 42.7082 168.125 42.6804 167.983 42.5964C167.85 42.5123 167.751 42.3835 167.705 42.233C167.527 41.6483 167.226 41.1083 166.822 40.6495C166.787 40.6017 166.75 40.5521 166.711 40.5002L166.71 40.4997L166.71 40.4995L166.71 40.4994C166.67 40.4466 166.629 40.3914 166.586 40.3333C165.998 39.5337 165.228 38.8864 164.339 38.4453C163.386 37.9521 162.168 37.7043 160.715 37.7043C158.723 37.7043 157.047 38.1763 155.735 39.1203C154.461 40.0076 153.847 41.1121 153.847 42.4973C153.847 43.7009 154.246 44.6448 155.067 45.3528C155.947 46.1222 157.42 46.7711 159.445 47.2832L165.6 48.7889ZM288.567 67.5634C292.699 71.6952 298.301 74.0192 304.144 74.0254C309.131 74.0196 313.942 72.3256 317.814 69.2606C317.817 69.2726 317.819 69.2845 317.822 69.2965L318.877 73.136C318.897 73.2015 318.936 73.2594 318.99 73.3017C319.043 73.3439 319.109 73.3685 319.177 73.372H326.257C326.319 73.372 326.379 73.3472 326.424 73.3029C326.468 73.2587 326.493 73.1986 326.493 73.136V30.8014C326.493 30.7388 326.468 30.6788 326.424 30.6346C326.379 30.5903 326.319 30.5654 326.257 30.5654H319.177C319.109 30.5684 319.043 30.5928 318.99 30.6352C318.937 30.6776 318.898 30.7358 318.88 30.8014L317.838 34.7304C313.962 31.6535 309.141 29.9527 304.144 29.9468C298.301 29.9537 292.699 32.2779 288.568 36.4096C284.436 40.5413 282.112 46.143 282.105 51.9861C282.111 57.8294 284.435 63.4315 288.567 67.5634ZM294.572 42.4135C297.111 39.8744 300.553 38.4463 304.144 38.4425C307.735 38.4469 311.177 39.8752 313.716 42.4142C316.255 44.9531 317.683 48.3955 317.688 51.9861C317.684 55.577 316.256 59.0196 313.717 61.5588C311.178 64.0979 307.735 65.526 304.144 65.5297C300.553 65.526 297.111 64.0979 294.572 61.5588C292.032 59.0196 290.604 55.577 290.601 51.9861C290.604 48.3953 292.032 44.9526 294.572 42.4135ZM242.662 68.6694C246.481 72.0653 251.409 73.948 256.52 73.9628C257.144 73.9628 257.771 73.9352 258.4 73.8802C265.463 73.8802 272.647 68.5976 275.609 63.0966C275.66 63.0001 275.671 62.8872 275.64 62.7825C275.609 62.6778 275.537 62.5897 275.441 62.5373L267.465 59.8692C267.373 59.8212 267.267 59.8104 267.168 59.839C267.069 59.8676 266.985 59.9334 266.934 60.0226C265.265 62.9371 261.809 65.4057 257.674 65.4057C255.935 65.5575 254.183 65.3514 252.527 64.8002C250.871 64.249 249.346 63.3644 248.045 62.2009C245.768 60.2068 244.224 57.8173 243.597 54.8815C243.59 54.8546 243.59 54.8265 243.596 54.7995C243.602 54.7725 243.614 54.7472 243.631 54.7255C243.649 54.7039 243.671 54.6865 243.696 54.6747C243.721 54.6629 243.748 54.6569 243.776 54.6573L276.846 54.8815C276.957 54.8803 277.063 54.8352 277.14 54.756C277.218 54.6768 277.262 54.5701 277.261 54.4591V49.6944C277.261 43.9999 274.991 39.1539 270.868 35.2836C268.706 33.2659 266.142 31.7283 263.343 30.7717C260.545 29.8151 257.576 29.4612 254.632 29.7331C251.816 29.9786 249.077 30.7813 246.574 32.0943C244.071 33.4073 241.854 35.2045 240.052 37.3816C236.337 41.8441 234.547 47.5995 235.075 53.3819C235.582 59.2463 238.273 64.8275 242.662 68.6694ZM267.906 46.5675L244.862 46.4165V46.4188C244.832 46.4187 244.803 46.4112 244.777 46.397C244.751 46.3828 244.729 46.3623 244.713 46.3374C244.697 46.3126 244.688 46.2841 244.686 46.2546C244.684 46.2251 244.689 46.1956 244.701 46.1687C244.837 45.9074 244.983 45.583 245.139 45.2369C245.493 44.4484 245.899 43.5474 246.353 43.0242C248.648 40.3993 251.88 38.7771 255.356 38.5049C257.141 38.3361 258.941 38.5351 260.646 39.0896C262.351 39.6441 263.924 40.5422 265.268 41.7286C266.502 42.8401 267.448 44.8825 268.076 46.3315C268.085 46.3585 268.088 46.3871 268.083 46.4152C268.079 46.4433 268.068 46.4699 268.051 46.493C268.035 46.516 268.013 46.5348 267.988 46.5477C267.963 46.5607 267.935 46.5675 267.906 46.5675Z" fill="#FAFAFA"></path><defs><clipPath id="clip0_2385_51745"><rect width="124.478" height="72.0625" fill="white" transform="translate(0.208008 0.613281)"></rect></clipPath></defs></svg>